<?xml version="1.0" encoding="utf-8"?>
<!-- Generator: Adobe Illustrator 16.0.0, SVG Export Plug-In . SVG Version: 6.00 Build 0)  -->
<!DOCTYPE svg PUBLIC "-//W3C//DTD SVG 1.1//EN" "http://www.w3.org/Graphics/SVG/1.1/DTD/svg11.dtd">
<svg version="1.1" id="Layer_1" xmlns="http://www.w3.org/2000/svg" xmlns:xlink="http://www.w3.org/1999/xlink" x="0px" y="0px"
	 width="94px" height="75px" viewBox="0 0 94 75" enable-background="new 0 0 94 75" xml:space="preserve">
<g>
	<path fill="#333333" d="M34.713,43.857c-3.074,0-6.07-0.243-8.906-0.724l-0.557-0.095l-8.16,5.021l0.683-7.098l-1.006-0.432
		c-8.408-3.612-13.23-9.712-13.23-16.737c0-11.625,13.111-20.063,31.177-20.063S65.89,12.169,65.89,23.794
		c0,1.271-0.166,2.5-0.469,3.688c1.039,0.005,2.062,0.039,3.064,0.104c0.264-1.226,0.404-2.491,0.404-3.792
		c0-13.364-14.373-23.063-34.177-23.063s-34.177,9.7-34.177,23.063c0,7.864,5.227,14.919,14.043,19.043l-1.052,10.938l12.338-7.592
		c2.771,0.438,5.676,0.66,8.645,0.67c0.135-1.029,0.366-2.03,0.677-3.002C35.029,43.852,34.873,43.857,34.713,43.857z"/>
	<g>
		<path fill="none" d="M65.163,32.978c-14.661,0-25.302,6.807-25.302,16.186S50.501,65.35,65.163,65.35
			c2.519,0,4.961-0.198,7.26-0.588l0.557-0.095l6.317,3.888l-0.526-5.478l1.005-0.432c6.793-2.92,10.688-7.834,10.688-13.481
			C90.463,39.785,79.823,32.978,65.163,32.978z"/>
		<g>
			<path fill="none" d="M65.163,32.978c-14.661,0-25.302,6.807-25.302,16.186S50.501,65.35,65.163,65.35
				c2.519,0,4.961-0.198,7.26-0.588l0.557-0.095l6.317,3.888l-0.526-5.478l1.005-0.432c6.793-2.92,10.688-7.834,10.688-13.481
				C90.463,39.785,79.823,32.978,65.163,32.978z"/>
			<path fill="#B19630" d="M93.463,49.164c0-11.117-11.902-19.186-28.301-19.186c-16.399,0-28.302,8.069-28.302,19.186
				S48.763,68.35,65.163,68.35c2.483,0,4.902-0.182,7.2-0.539l10.498,6.459l-0.897-9.322C89.187,61.507,93.463,55.67,93.463,49.164z
				 M79.775,62.646l-1.005,0.432l0.526,5.478l-6.317-3.888l-0.557,0.095c-2.299,0.39-4.741,0.588-7.26,0.588
				c-14.661,0-25.302-6.807-25.302-16.186s10.641-16.186,25.302-16.186c14.66,0,25.301,6.807,25.301,16.186
				C90.463,54.812,86.568,59.726,79.775,62.646z"/>
		</g>
	</g>
</g>
</svg>
