<?xml version="1.0" encoding="utf-8"?>
<!-- Generator: Adobe Illustrator 16.0.0, SVG Export Plug-In . SVG Version: 6.00 Build 0)  -->
<!DOCTYPE svg PUBLIC "-//W3C//DTD SVG 1.1//EN" "http://www.w3.org/Graphics/SVG/1.1/DTD/svg11.dtd">
<svg version="1.1" id="Layer_1" xmlns="http://www.w3.org/2000/svg" xmlns:xlink="http://www.w3.org/1999/xlink" x="0px" y="0px"
	 width="94px" height="75px" viewBox="0 0 94 75" enable-background="new 0 0 94 75" xml:space="preserve">
<g>
	<path fill="#333333" d="M86.348,2.821c-0.361-0.314-0.842-0.458-1.311-0.389L46.747,7.79L8.46,2.432
		C7.986,2.364,7.508,2.507,7.146,2.821C6.787,3.135,6.579,3.589,6.579,4.067v56.058c0,0.823,0.605,1.521,1.423,1.635l38.518,5.39
		c0.075,0.011,0.152,0.016,0.228,0.016c0.077,0,0.152-0.005,0.229-0.016l38.518-5.39c0.815-0.114,1.421-0.812,1.421-1.635V4.067
		C86.915,3.589,86.709,3.135,86.348,2.821z M9.88,5.965l35.217,4.927v52.724L9.88,58.688V5.965z M83.614,58.688l-35.217,4.928
		V10.892l35.217-4.927V58.688z"/>
	<g>
		<path fill="#333333" d="M56.673,25.04c-0.793,0-1.493-0.573-1.627-1.382c-0.148-0.899,0.46-1.749,1.36-1.897l19.472-3.211
			c0.898-0.15,1.75,0.461,1.898,1.36s-0.46,1.749-1.361,1.897l-19.471,3.211C56.852,25.033,56.761,25.04,56.673,25.04z"/>
	</g>
	<g>
		<path fill="#333333" d="M56.673,37.856c-0.793,0-1.493-0.573-1.627-1.382c-0.148-0.899,0.46-1.749,1.36-1.897l19.472-3.212
			c0.898-0.15,1.75,0.461,1.898,1.36s-0.46,1.749-1.361,1.897l-19.471,3.212C56.852,37.85,56.761,37.856,56.673,37.856z"/>
	</g>
	<g>
		<path fill="#333333" d="M56.673,50.674c-0.793,0-1.493-0.573-1.627-1.382c-0.148-0.899,0.46-1.749,1.36-1.897l19.472-3.213
			c0.898-0.153,1.75,0.46,1.898,1.36c0.148,0.899-0.46,1.75-1.361,1.897l-19.471,3.212C56.852,50.666,56.761,50.674,56.673,50.674z"
			/>
	</g>
	<g>
		<path fill="#333333" d="M35.431,25.04c-0.091,0-0.181-0.007-0.271-0.022l-19.474-3.211c-0.898-0.148-1.509-0.998-1.36-1.897
			c0.15-0.899,0.991-1.511,1.898-1.36l19.474,3.211c0.898,0.148,1.509,0.998,1.36,1.897C36.922,24.466,36.224,25.04,35.431,25.04z"
			/>
	</g>
	<g>
		<path fill="#333333" d="M35.431,37.856c-0.091,0-0.181-0.007-0.271-0.021l-19.474-3.212c-0.898-0.148-1.509-0.998-1.36-1.897
			c0.15-0.899,0.991-1.511,1.898-1.36l19.474,3.212c0.898,0.148,1.509,0.998,1.36,1.897C36.922,37.283,36.224,37.856,35.431,37.856z
			"/>
	</g>
	<g>
		<path fill="#333333" d="M35.431,50.674c-0.091,0-0.181-0.008-0.271-0.022l-19.474-3.212c-0.898-0.147-1.509-0.998-1.36-1.897
			c0.15-0.9,0.991-1.514,1.898-1.36l19.474,3.213c0.898,0.148,1.509,0.998,1.36,1.897C36.922,50.101,36.224,50.674,35.431,50.674z"
			/>
	</g>
</g>
<path fill="#B19630" d="M46.564,69.848c-0.075,0-0.152-0.007-0.228-0.018L8.965,64.601v5.152c0,0.606,0.516,1.101,1.146,1.101
	h73.275c0.63,0,1.146-0.494,1.146-1.101v-5.201L46.794,69.83C46.717,69.841,46.642,69.848,46.564,69.848z"/>
</svg>
